<svg xmlns="http://www.w3.org/2000/svg" viewBox="0 0 85.5 36.9"><defs><style>.cls-1{fill:#E7F6F2;}</style></defs><title>Asset 3</title><g id="Layer_2" data-name="Layer 2"><g id="Layer_1-2" data-name="Layer 1"><path class="cls-1" d="M0,33.6v-.3c.45-5.55,2.1-10.8,3.3-16C4.8,12,6,5.55,9.3.75A1.66,1.66,0,0,1,10.8,0c1.95,0,4.95,2,4.95,3.75V3.9a65.23,65.23,0,0,1-3.6,11.25,9.79,9.79,0,0,0,1.95-2.4c2.1-2.85,5.85-8.7,9.75-8.7l1.5.3c1.65.75,2.1,2.1,2.1,3.75,0,3.45-2.25,8.1-2.25,10.8l.15,1.2c.6,1.8,1.65,2.55,2.85,2.55,4.95,0,13.8-10,15.75-12.3h.3c.6,0,2.1.75,2.1,1.2C43.2,16.8,36.3,23.25,30.3,24.9l-1.5.15c-3.45,0-6.6-2.7-6.6-6.15,0-3.75,1.2-7.65,1.95-10.95A4.76,4.76,0,0,1,24.45,6l-.6.75a8.93,8.93,0,0,1-2.1,1.95L17.4,14a55.9,55.9,0,0,0-6.15,9.75L8.55,29,7.2,36.15c-.3.6-.9.75-1.8.75C3.3,36.9,0,35.25,0,33.6Z"/><path class="cls-1" d="M39.15,33.6v-.3c.45-5.55,2.1-10.8,3.3-16,1.5-5.25,2.7-11.7,6-16.5A1.66,1.66,0,0,1,50,0C51.9,0,54.9,2,54.9,3.75V3.9a65.23,65.23,0,0,1-3.6,11.25,9.79,9.79,0,0,0,2-2.4c2.1-2.85,5.85-8.7,9.75-8.7l1.5.3c1.65.75,2.1,2.1,2.1,3.75,0,3.45-2.25,8.1-2.25,10.8l.15,1.2c.6,1.8,1.65,2.55,2.85,2.55,5,0,13.8-10,15.75-12.3h.3c.6,0,2.1.75,2.1,1.2-3.15,5.25-10,11.7-16,13.35l-1.5.15c-3.45,0-6.6-2.7-6.6-6.15,0-3.75,1.2-7.65,1.95-10.95A4.76,4.76,0,0,1,63.6,6l-.6.75A8.93,8.93,0,0,1,60.9,8.7L56.55,14A55.9,55.9,0,0,0,50.4,23.7L47.7,29l-1.35,7.2c-.3.6-.9.75-1.8.75C42.45,36.9,39.15,35.25,39.15,33.6Z"/></g></g></svg>